# Blender v2.93.0 OBJ File: 'virus.blend'
# www.blender.org
mtllib virus.mtl
o Cube
v 1.032294 0.972484 -0.994306
v 1.308810 -0.967208 -0.592894
v 0.630882 1.314505 0.934915
v 0.907399 -0.625188 1.336326
v -0.907399 0.625188 -1.336326
v -0.630882 -1.314505 -0.934915
v -1.308810 0.967208 0.592894
v -1.032294 -0.972484 0.994306
vt 0.625000 0.500000
vt 0.875000 0.500000
vt 0.875000 0.750000
vt 0.625000 0.750000
vt 0.375000 0.750000
vt 0.625000 1.000000
vt 0.375000 1.000000
vt 0.375000 0.000000
vt 0.625000 0.000000
vt 0.625000 0.250000
vt 0.375000 0.250000
vt 0.125000 0.500000
vt 0.375000 0.500000
vt 0.125000 0.750000
vn -0.1383 0.9698 -0.2007
vn -0.2007 0.1710 0.9646
vn -0.9698 -0.1736 -0.1710
vn 0.1383 -0.9698 0.2007
vn 0.9698 0.1736 0.1710
vn 0.2007 -0.1710 -0.9646
usemtl Material
s off
f 1/1/1 5/2/1 7/3/1 3/4/1
f 4/5/2 3/4/2 7/6/2 8/7/2
f 8/8/3 7/9/3 5/10/3 6/11/3
f 6/12/4 2/13/4 4/5/4 8/14/4
f 2/13/5 1/1/5 3/4/5 4/5/5
f 6/11/6 5/10/6 1/1/6 2/13/6
o Cube.001_Cube.002
v 1.000000 1.000000 -1.000000
v 1.000000 -1.000000 -1.000000
v 1.000000 1.000000 1.000000
v 1.000000 -1.000000 1.000000
v -1.000000 1.000000 -1.000000
v -1.000000 -1.000000 -1.000000
v -1.000000 1.000000 1.000000
v -1.000000 -1.000000 1.000000
vt 0.625000 0.500000
vt 0.875000 0.500000
vt 0.875000 0.750000
vt 0.625000 0.750000
vt 0.375000 0.750000
vt 0.625000 1.000000
vt 0.375000 1.000000
vt 0.375000 0.000000
vt 0.625000 0.000000
vt 0.625000 0.250000
vt 0.375000 0.250000
vt 0.125000 0.500000
vt 0.375000 0.500000
vt 0.125000 0.750000
vn 0.0000 1.0000 0.0000
vn 0.0000 0.0000 1.0000
vn -1.0000 0.0000 0.0000
vn 0.0000 -1.0000 0.0000
vn 1.0000 0.0000 0.0000
vn 0.0000 0.0000 -1.0000
usemtl Material.002
s off
f 9/15/7 13/16/7 15/17/7 11/18/7
f 12/19/8 11/18/8 15/20/8 16/21/8
f 16/22/9 15/23/9 13/24/9 14/25/9
f 14/26/10 10/27/10 12/19/10 16/28/10
f 10/27/11 9/15/11 11/18/11 12/19/11
f 14/25/12 13/24/12 9/15/12 10/27/12
o Cube.002_Cube.003
v 1.129306 0.903649 -0.952937
v 1.499373 -0.862396 -0.090303
v 0.266672 1.546436 0.733090
v 0.636739 -0.219608 1.595724
v -0.636739 0.219608 -1.595724
v -0.266672 -1.546436 -0.733090
v -1.499373 0.862396 0.090303
v -1.129306 -0.903649 0.952937
vt 0.625000 0.500000
vt 0.875000 0.500000
vt 0.875000 0.750000
vt 0.625000 0.750000
vt 0.375000 0.750000
vt 0.625000 1.000000
vt 0.375000 1.000000
vt 0.375000 0.000000
vt 0.625000 0.000000
vt 0.625000 0.250000
vt 0.375000 0.250000
vt 0.125000 0.500000
vt 0.375000 0.500000
vt 0.125000 0.750000
vn -0.1850 0.8830 -0.4313
vn -0.4313 0.3214 0.8430
vn -0.8830 -0.3420 -0.3214
vn 0.1850 -0.8830 0.4313
vn 0.8830 0.3420 0.3214
vn 0.4313 -0.3214 -0.8430
usemtl Material.003
s off
f 17/29/13 21/30/13 23/31/13 19/32/13
f 20/33/14 19/32/14 23/34/14 24/35/14
f 24/36/15 23/37/15 21/38/15 22/39/15
f 22/40/16 18/41/16 20/33/16 24/42/16
f 18/41/17 17/29/17 19/32/17 20/33/17
f 22/39/18 21/38/18 17/29/18 18/41/18
o Cube.003_Cube.004
v 1.274519 0.816987 -0.841506
v 1.524519 -0.683013 0.457532
v -0.024519 1.683013 0.408494
v 0.225481 0.183013 1.707532
v -0.225481 -0.183013 -1.707532
v 0.024519 -1.683013 -0.408494
v -1.524519 0.683013 -0.457532
v -1.274519 -0.816987 0.841506
vt 0.625000 0.500000
vt 0.875000 0.500000
vt 0.875000 0.750000
vt 0.625000 0.750000
vt 0.375000 0.750000
vt 0.625000 1.000000
vt 0.375000 1.000000
vt 0.375000 0.000000
vt 0.625000 0.000000
vt 0.625000 0.250000
vt 0.375000 0.250000
vt 0.125000 0.500000
vt 0.375000 0.500000
vt 0.125000 0.750000
vn -0.1250 0.7500 -0.6495
vn -0.6495 0.4330 0.6250
vn -0.7500 -0.5000 -0.4330
vn 0.1250 -0.7500 0.6495
vn 0.7500 0.5000 0.4330
vn 0.6495 -0.4330 -0.6250
usemtl Material.004
s off
f 25/43/19 29/44/19 31/45/19 27/46/19
f 28/47/20 27/46/20 31/48/20 32/49/20
f 32/50/21 31/51/21 29/52/21 30/53/21
f 30/54/22 26/55/22 28/47/22 32/56/22
f 26/55/23 25/43/23 27/46/23 28/47/23
f 30/53/24 29/52/24 25/43/24 26/55/24
o Cube.004_Cube.005
v 1.431712 0.737208 -0.637751
v 1.359766 -0.436440 0.980079
v -0.186118 1.722016 0.004729
v -0.258063 0.548367 1.622559
v 0.258063 -0.548367 -1.622559
v 0.186118 -1.722016 -0.004729
v -1.359766 0.436440 -0.980079
v -1.431712 -0.737208 0.637751
vt 0.625000 0.500000
vt 0.875000 0.500000
vt 0.875000 0.750000
vt 0.625000 0.750000
vt 0.375000 0.750000
vt 0.625000 1.000000
vt 0.375000 1.000000
vt 0.375000 0.000000
vt 0.625000 0.000000
vt 0.625000 0.250000
vt 0.375000 0.250000
vt 0.125000 0.500000
vt 0.375000 0.500000
vt 0.125000 0.750000
vn 0.0360 0.5868 -0.8089
vn -0.8089 0.4924 0.3212
vn -0.5868 -0.6428 -0.4924
vn -0.0360 -0.5868 0.8089
vn 0.5868 0.6428 0.4924
vn 0.8089 -0.4924 -0.3212
usemtl Material.005
s off
f 33/57/25 37/58/25 39/59/25 35/60/25
f 36/61/26 35/60/26 39/62/26 40/63/26
f 40/64/27 39/65/27 37/66/27 38/67/27
f 38/68/28 34/69/28 36/61/28 40/70/28
f 34/69/29 33/57/29 35/60/29 36/61/29
f 38/67/30 37/66/30 33/57/30 34/69/30
o Cube.005_Cube.006
v 1.553096 0.686816 -0.340846
v 1.012470 -0.139535 1.398368
v -0.186118 1.671624 -0.413561
v -0.726744 0.845272 1.325654
v 0.726744 -0.845272 -1.325654
v 0.186118 -1.671624 0.413561
v -1.012470 0.139535 -1.398368
v -1.553096 -0.686816 0.340846
vt 0.625000 0.500000
vt 0.875000 0.500000
vt 0.875000 0.750000
vt 0.625000 0.750000
vt 0.375000 0.750000
vt 0.625000 1.000000
vt 0.375000 1.000000
vt 0.375000 0.000000
vt 0.625000 0.000000
vt 0.625000 0.250000
vt 0.375000 0.250000
vt 0.125000 0.500000
vt 0.375000 0.500000
vt 0.125000 0.750000
vn 0.2703 0.4132 -0.8696
vn -0.8696 0.4924 -0.0364
vn -0.4132 -0.7660 -0.4924
vn -0.2703 -0.4132 0.8696
vn 0.4132 0.7660 0.4924
vn 0.8696 -0.4924 0.0364
usemtl Material.006
s off
f 41/71/31 45/72/31 47/73/31 43/74/31
f 44/75/32 43/74/32 47/76/32 48/77/32
f 48/78/33 47/79/33 45/80/33 46/81/33
f 46/82/34 42/83/34 44/75/34 48/84/34
f 42/83/35 41/71/35 43/74/35 44/75/35
f 46/81/36 45/80/36 41/71/36 42/83/36
o Cube.006_Cube.007
v 1.591506 0.683013 0.024519
v 0.524519 0.183013 1.640544
v -0.024519 1.549038 -0.774519
v -1.091506 1.049038 0.841506
v 1.091506 -1.049038 -0.841506
v 0.024519 -1.549038 0.774519
v -0.524519 -0.183013 -1.640544
v -1.591506 -0.683013 -0.024519
vt 0.625000 0.500000
vt 0.875000 0.500000
vt 0.875000 0.750000
vt 0.625000 0.750000
vt 0.375000 0.750000
vt 0.625000 1.000000
vt 0.375000 1.000000
vt 0.375000 0.000000
vt 0.625000 0.000000
vt 0.625000 0.250000
vt 0.375000 0.250000
vt 0.125000 0.500000
vt 0.375000 0.500000
vt 0.125000 0.750000
vn 0.5335 0.2500 -0.8080
vn -0.8080 0.4330 -0.3995
vn -0.2500 -0.8660 -0.4330
vn -0.5335 -0.2500 0.8080
vn 0.2500 0.8660 0.4330
vn 0.8080 -0.4330 0.3995
usemtl Material.007
s off
f 49/85/37 53/86/37 55/87/37 51/88/37
f 52/89/38 51/88/38 55/90/38 56/91/38
f 56/92/39 55/93/39 53/94/39 54/95/39
f 54/96/40 50/97/40 52/89/40 56/98/40
f 50/97/41 49/85/41 51/88/41 52/89/41
f 54/95/42 53/94/42 49/85/42 50/97/42
o Cube.007_Cube.008
v 1.513482 0.735277 0.410780
v -0.032716 0.501321 1.657591
v 0.266672 1.378064 -1.014803
v -1.279526 1.144109 0.232007
v 1.279526 -1.144109 -0.232007
v -0.266672 -1.378064 1.014803
v 0.032716 -0.501321 -1.657591
v -1.513482 -0.735277 -0.410780
vt 0.625000 0.500000
vt 0.875000 0.500000
vt 0.875000 0.750000
vt 0.625000 0.750000
vt 0.375000 0.750000
vt 0.625000 1.000000
vt 0.375000 1.000000
vt 0.375000 0.000000
vt 0.625000 0.000000
vt 0.625000 0.250000
vt 0.375000 0.250000
vt 0.125000 0.500000
vt 0.375000 0.500000
vt 0.125000 0.750000
vn 0.7731 0.1170 -0.6234
vn -0.6234 0.3214 -0.7128
vn -0.1170 -0.9397 -0.3214
vn -0.7731 -0.1170 0.6234
vn 0.1170 0.9397 0.3214
vn 0.6234 -0.3214 0.7128
usemtl Material.008
s off
f 57/99/43 61/100/43 63/101/43 59/102/43
f 60/103/44 59/102/44 63/104/44 64/105/44
f 64/106/45 63/107/45 61/108/45 62/109/45
f 62/110/46 58/111/46 60/103/46 64/112/46
f 58/111/47 57/99/47 59/102/47 60/103/47
f 62/109/48 61/108/48 57/99/48 58/111/48
o Cube.008_Cube.009
v 1.309727 0.843951 0.756546
v -0.570575 0.783644 1.435391
v 0.630882 1.185972 -1.093371
v -1.249419 1.125664 -0.414526
v 1.249419 -1.125664 0.414526
v -0.630882 -1.185972 1.093371
v 0.570575 -0.783644 -1.435391
v -1.309727 -0.843951 -0.756546
vt 0.625000 0.500000
vt 0.875000 0.500000
vt 0.875000 0.750000
vt 0.625000 0.750000
vt 0.375000 0.750000
vt 0.625000 1.000000
vt 0.375000 1.000000
vt 0.375000 0.000000
vt 0.625000 0.000000
vt 0.625000 0.250000
vt 0.375000 0.250000
vt 0.125000 0.500000
vt 0.375000 0.500000
vt 0.125000 0.750000
vn 0.9402 0.0302 -0.3394
vn -0.3394 0.1710 -0.9250
vn -0.0302 -0.9848 -0.1710
vn -0.9402 -0.0302 0.3394
vn 0.0302 0.9848 0.1710
vn 0.3394 -0.1710 0.9250
usemtl Material.009
s off
f 65/113/49 69/114/49 71/115/49 67/116/49
f 68/117/50 67/116/50 71/118/50 72/119/50
f 72/120/51 71/121/51 69/122/51 70/123/51
f 70/124/52 66/125/52 68/117/52 72/126/52
f 66/125/53 65/113/53 67/116/53 68/117/53
f 70/123/54 69/122/54 65/113/54 66/125/54
